<mxfile host="Electron" agent="Mozilla/5.0 (X11; Linux x86_64) AppleWebKit/537.36 (KHTML, like Gecko) draw.io/24.7.17 Chrome/128.0.6613.36 Electron/32.0.1 Safari/537.36" version="24.7.17">
  <diagram name="第 1 页" id="RaaS6X5X53rJGKluQvAJ">
    <mxGraphModel dx="1834" dy="1275" grid="1" gridSize="10" guides="1" tooltips="1" connect="1" arrows="1" fold="1" page="0" pageScale="1" pageWidth="827" pageHeight="1169" math="1" shadow="0">
      <root>
        <mxCell id="0" />
        <mxCell id="1" parent="0" />
        <mxCell id="unW8AJuNFac2D4NUh13W-2" value="" style="group" parent="1" vertex="1" connectable="0">
          <mxGeometry x="7.5" y="-300" width="1122.5" height="800" as="geometry" />
        </mxCell>
        <mxCell id="s7pyCabgil_awyXMFI7J-14" value="" style="rounded=1;whiteSpace=wrap;html=1;fillColor=#ffe6cc;strokeColor=#d79b00;arcSize=9;strokeWidth=2;dashed=1;dashPattern=8 8;fontSize=20;fontFamily=Palatino Linotype;" parent="unW8AJuNFac2D4NUh13W-2" vertex="1">
          <mxGeometry y="40" width="660" height="250" as="geometry" />
        </mxCell>
        <mxCell id="s7pyCabgil_awyXMFI7J-2" value="\(\mathcal{S}_c\): Uniform grid with random translation" style="rounded=1;whiteSpace=wrap;html=1;fontSize=20;fontFamily=Palatino Linotype;fillColor=#ffe6cc;strokeColor=#d79b00;" parent="unW8AJuNFac2D4NUh13W-2" vertex="1">
          <mxGeometry x="230" y="60" width="410" height="60" as="geometry" />
        </mxCell>
        <mxCell id="s7pyCabgil_awyXMFI7J-3" value="$$\mathcal{S}_g\longleftarrow \mathcal{S}_c \cup \mathcal{S}_a$$" style="rounded=1;whiteSpace=wrap;html=1;fontSize=20;fontFamily=Palatino Linotype;fillColor=#ffe6cc;strokeColor=#d79b00;" parent="unW8AJuNFac2D4NUh13W-2" vertex="1">
          <mxGeometry x="20" y="95" width="170" height="60" as="geometry" />
        </mxCell>
        <mxCell id="s7pyCabgil_awyXMFI7J-15" style="edgeStyle=orthogonalEdgeStyle;rounded=0;orthogonalLoop=1;jettySize=auto;html=1;entryX=1;entryY=0.5;entryDx=0;entryDy=0;strokeWidth=2;fontSize=20;fontFamily=Palatino Linotype;" parent="unW8AJuNFac2D4NUh13W-2" source="s7pyCabgil_awyXMFI7J-2" target="s7pyCabgil_awyXMFI7J-3" edge="1">
          <mxGeometry relative="1" as="geometry" />
        </mxCell>
        <mxCell id="s7pyCabgil_awyXMFI7J-4" value="\(\mathcal{S}_i,\mathcal{S}_b\): Diffused sampling strategy with local refinement" style="rounded=1;whiteSpace=wrap;html=1;fontSize=20;fontFamily=Palatino Linotype;fillColor=#ffe6cc;strokeColor=#d79b00;align=center;" parent="unW8AJuNFac2D4NUh13W-2" vertex="1">
          <mxGeometry x="20" y="210" width="530" height="60" as="geometry" />
        </mxCell>
        <mxCell id="s7pyCabgil_awyXMFI7J-16" style="edgeStyle=orthogonalEdgeStyle;rounded=0;orthogonalLoop=1;jettySize=auto;html=1;entryX=1;entryY=0.5;entryDx=0;entryDy=0;strokeWidth=2;fontSize=20;fontFamily=Palatino Linotype;" parent="unW8AJuNFac2D4NUh13W-2" source="s7pyCabgil_awyXMFI7J-12" target="s7pyCabgil_awyXMFI7J-3" edge="1">
          <mxGeometry relative="1" as="geometry" />
        </mxCell>
        <mxCell id="s7pyCabgil_awyXMFI7J-12" value="\(\mathcal{S}_a\):&amp;nbsp;Adaptive sampling strategy" style="rounded=1;whiteSpace=wrap;html=1;fontSize=20;fontFamily=Palatino Linotype;fillColor=#ffe6cc;strokeColor=#d79b00;" parent="unW8AJuNFac2D4NUh13W-2" vertex="1">
          <mxGeometry x="230" y="130" width="312.5" height="60" as="geometry" />
        </mxCell>
        <mxCell id="BszT2_qG-WdLsj_Sx0hV-11" value="" style="rounded=1;whiteSpace=wrap;html=1;fillColor=#d5e8d4;strokeColor=#82b366;arcSize=9;strokeWidth=2;dashed=1;dashPattern=8 8;fontSize=20;fontFamily=Palatino Linotype;" parent="unW8AJuNFac2D4NUh13W-2" vertex="1">
          <mxGeometry x="552.5" y="310" width="300" height="420" as="geometry" />
        </mxCell>
        <mxCell id="BszT2_qG-WdLsj_Sx0hV-13" value="" style="rounded=1;whiteSpace=wrap;html=1;fillColor=#ffe6cc;strokeColor=#d79b00;arcSize=9;strokeWidth=2;dashed=1;dashPattern=8 8;fontSize=20;fontFamily=Palatino Linotype;" parent="unW8AJuNFac2D4NUh13W-2" vertex="1">
          <mxGeometry x="2.5" y="415" width="95" height="210" as="geometry" />
        </mxCell>
        <mxCell id="BszT2_qG-WdLsj_Sx0hV-10" value="" style="rounded=1;whiteSpace=wrap;html=1;fillColor=#f5f5f5;strokeColor=#666666;fontColor=#333333;arcSize=9;strokeWidth=2;dashed=1;dashPattern=8 8;fontSize=20;fontFamily=Palatino Linotype;" parent="unW8AJuNFac2D4NUh13W-2" vertex="1">
          <mxGeometry x="132.5" y="310" width="380" height="420" as="geometry" />
        </mxCell>
        <mxCell id="My6zWbfyxGtQk9fwxTb6-23" value="$$\ddots$$" style="text;html=1;strokeColor=none;fillColor=none;align=center;verticalAlign=middle;whiteSpace=wrap;rounded=0;fontSize=20;fontStyle=0;fontFamily=Palatino Linotype;" parent="unW8AJuNFac2D4NUh13W-2" vertex="1">
          <mxGeometry x="372.5" y="505" width="60" height="30" as="geometry" />
        </mxCell>
        <mxCell id="My6zWbfyxGtQk9fwxTb6-6" value="" style="ellipse;whiteSpace=wrap;html=1;aspect=fixed;fontSize=20;fillColor=#f5f5f5;fontColor=#333333;strokeColor=#666666;fontFamily=Palatino Linotype;" parent="unW8AJuNFac2D4NUh13W-2" vertex="1">
          <mxGeometry x="172.5" y="330" width="60" height="60" as="geometry" />
        </mxCell>
        <mxCell id="My6zWbfyxGtQk9fwxTb6-7" value="" style="ellipse;whiteSpace=wrap;html=1;aspect=fixed;fontSize=20;fillColor=#f5f5f5;fontColor=#333333;strokeColor=#666666;fontFamily=Palatino Linotype;" parent="unW8AJuNFac2D4NUh13W-2" vertex="1">
          <mxGeometry x="172.5" y="410" width="60" height="60" as="geometry" />
        </mxCell>
        <mxCell id="My6zWbfyxGtQk9fwxTb6-8" value="" style="ellipse;whiteSpace=wrap;html=1;aspect=fixed;fontSize=20;fillColor=#f5f5f5;fontColor=#333333;strokeColor=#666666;fontFamily=Palatino Linotype;" parent="unW8AJuNFac2D4NUh13W-2" vertex="1">
          <mxGeometry x="172.5" y="570" width="60" height="60" as="geometry" />
        </mxCell>
        <mxCell id="My6zWbfyxGtQk9fwxTb6-10" value="$$\vdots$$" style="text;html=1;strokeColor=none;fillColor=none;align=center;verticalAlign=middle;whiteSpace=wrap;rounded=0;fontSize=20;fontStyle=0;fontFamily=Palatino Linotype;" parent="unW8AJuNFac2D4NUh13W-2" vertex="1">
          <mxGeometry x="172.5" y="505" width="60" height="30" as="geometry" />
        </mxCell>
        <mxCell id="My6zWbfyxGtQk9fwxTb6-42" value="" style="ellipse;whiteSpace=wrap;html=1;aspect=fixed;fontSize=20;fillColor=#f5f5f5;fontColor=#333333;strokeColor=#666666;fontFamily=Palatino Linotype;" parent="unW8AJuNFac2D4NUh13W-2" vertex="1">
          <mxGeometry x="172.5" y="650" width="60" height="60" as="geometry" />
        </mxCell>
        <mxCell id="My6zWbfyxGtQk9fwxTb6-43" value="" style="ellipse;whiteSpace=wrap;html=1;aspect=fixed;fontSize=20;fillColor=#f5f5f5;fontColor=#333333;strokeColor=#666666;fontFamily=Palatino Linotype;" parent="unW8AJuNFac2D4NUh13W-2" vertex="1">
          <mxGeometry x="312.5" y="650" width="60" height="60" as="geometry" />
        </mxCell>
        <mxCell id="My6zWbfyxGtQk9fwxTb6-44" value="" style="ellipse;whiteSpace=wrap;html=1;aspect=fixed;fontSize=20;fillColor=#f5f5f5;fontColor=#333333;strokeColor=#666666;fontFamily=Palatino Linotype;" parent="unW8AJuNFac2D4NUh13W-2" vertex="1">
          <mxGeometry x="432.5" y="650" width="60" height="60" as="geometry" />
        </mxCell>
        <mxCell id="My6zWbfyxGtQk9fwxTb6-45" style="rounded=0;orthogonalLoop=1;jettySize=auto;html=1;entryX=0;entryY=0.5;entryDx=0;entryDy=0;exitX=1;exitY=0.5;exitDx=0;exitDy=0;endArrow=openThin;endFill=0;fillColor=#d5e8d4;strokeColor=#000000;endSize=3;fontSize=20;fontFamily=Palatino Linotype;" parent="unW8AJuNFac2D4NUh13W-2" source="My6zWbfyxGtQk9fwxTb6-4" target="My6zWbfyxGtQk9fwxTb6-42" edge="1">
          <mxGeometry relative="1" as="geometry">
            <mxPoint x="62.5" y="480" as="sourcePoint" />
            <mxPoint x="132.5" y="610" as="targetPoint" />
          </mxGeometry>
        </mxCell>
        <mxCell id="My6zWbfyxGtQk9fwxTb6-46" style="rounded=0;orthogonalLoop=1;jettySize=auto;html=1;exitX=1;exitY=0.5;exitDx=0;exitDy=0;entryX=0;entryY=0.5;entryDx=0;entryDy=0;endArrow=openThin;endFill=0;fillColor=#d5e8d4;strokeColor=#000000;endSize=3;fontSize=20;fontFamily=Palatino Linotype;" parent="unW8AJuNFac2D4NUh13W-2" source="My6zWbfyxGtQk9fwxTb6-5" target="My6zWbfyxGtQk9fwxTb6-42" edge="1">
          <mxGeometry relative="1" as="geometry">
            <mxPoint x="62.5" y="480" as="sourcePoint" />
            <mxPoint x="82.5" y="690" as="targetPoint" />
          </mxGeometry>
        </mxCell>
        <mxCell id="My6zWbfyxGtQk9fwxTb6-47" style="rounded=0;orthogonalLoop=1;jettySize=auto;html=1;entryX=0;entryY=0.5;entryDx=0;entryDy=0;exitX=1;exitY=0.5;exitDx=0;exitDy=0;endArrow=openThin;endFill=0;endSize=6;fontSize=20;fontFamily=Palatino Linotype;" parent="unW8AJuNFac2D4NUh13W-2" source="My6zWbfyxGtQk9fwxTb6-6" target="My6zWbfyxGtQk9fwxTb6-43" edge="1">
          <mxGeometry relative="1" as="geometry">
            <mxPoint x="242.5" y="370" as="sourcePoint" />
            <mxPoint x="285.5" y="610" as="targetPoint" />
          </mxGeometry>
        </mxCell>
        <mxCell id="My6zWbfyxGtQk9fwxTb6-48" style="rounded=0;orthogonalLoop=1;jettySize=auto;html=1;entryX=0;entryY=0.5;entryDx=0;entryDy=0;exitX=1;exitY=0.5;exitDx=0;exitDy=0;endArrow=openThin;endFill=0;endSize=6;fontSize=20;fontFamily=Palatino Linotype;" parent="unW8AJuNFac2D4NUh13W-2" source="My6zWbfyxGtQk9fwxTb6-7" target="My6zWbfyxGtQk9fwxTb6-43" edge="1">
          <mxGeometry relative="1" as="geometry">
            <mxPoint x="242.5" y="370" as="sourcePoint" />
            <mxPoint x="285.5" y="690" as="targetPoint" />
          </mxGeometry>
        </mxCell>
        <mxCell id="My6zWbfyxGtQk9fwxTb6-49" style="rounded=0;orthogonalLoop=1;jettySize=auto;html=1;entryX=0;entryY=0.5;entryDx=0;entryDy=0;exitX=1;exitY=0.5;exitDx=0;exitDy=0;endArrow=openThin;endFill=0;endSize=6;fontSize=20;fontFamily=Palatino Linotype;" parent="unW8AJuNFac2D4NUh13W-2" source="My6zWbfyxGtQk9fwxTb6-8" target="My6zWbfyxGtQk9fwxTb6-43" edge="1">
          <mxGeometry relative="1" as="geometry">
            <mxPoint x="242.5" y="610" as="sourcePoint" />
            <mxPoint x="285.5" y="610" as="targetPoint" />
          </mxGeometry>
        </mxCell>
        <mxCell id="My6zWbfyxGtQk9fwxTb6-50" style="rounded=0;orthogonalLoop=1;jettySize=auto;html=1;entryX=0;entryY=0.5;entryDx=0;entryDy=0;exitX=1;exitY=0.5;exitDx=0;exitDy=0;endArrow=openThin;endFill=0;endSize=6;fontSize=20;fontFamily=Palatino Linotype;" parent="unW8AJuNFac2D4NUh13W-2" source="My6zWbfyxGtQk9fwxTb6-42" target="My6zWbfyxGtQk9fwxTb6-11" edge="1">
          <mxGeometry relative="1" as="geometry">
            <mxPoint x="242.5" y="610" as="sourcePoint" />
            <mxPoint x="285.5" y="690" as="targetPoint" />
          </mxGeometry>
        </mxCell>
        <mxCell id="My6zWbfyxGtQk9fwxTb6-51" style="rounded=0;orthogonalLoop=1;jettySize=auto;html=1;entryX=0;entryY=0.5;entryDx=0;entryDy=0;exitX=1;exitY=0.5;exitDx=0;exitDy=0;endArrow=openThin;endFill=0;endSize=6;fontSize=20;fontFamily=Palatino Linotype;" parent="unW8AJuNFac2D4NUh13W-2" source="My6zWbfyxGtQk9fwxTb6-42" target="My6zWbfyxGtQk9fwxTb6-12" edge="1">
          <mxGeometry relative="1" as="geometry">
            <mxPoint x="242.5" y="690" as="sourcePoint" />
            <mxPoint x="285.5" y="370" as="targetPoint" />
          </mxGeometry>
        </mxCell>
        <mxCell id="My6zWbfyxGtQk9fwxTb6-52" style="rounded=0;orthogonalLoop=1;jettySize=auto;html=1;entryX=0;entryY=0.5;entryDx=0;entryDy=0;exitX=1;exitY=0.5;exitDx=0;exitDy=0;endArrow=openThin;endFill=0;endSize=6;fontSize=20;fontFamily=Palatino Linotype;" parent="unW8AJuNFac2D4NUh13W-2" source="My6zWbfyxGtQk9fwxTb6-42" target="My6zWbfyxGtQk9fwxTb6-13" edge="1">
          <mxGeometry relative="1" as="geometry">
            <mxPoint x="242.5" y="690" as="sourcePoint" />
            <mxPoint x="285.5" y="450" as="targetPoint" />
          </mxGeometry>
        </mxCell>
        <mxCell id="My6zWbfyxGtQk9fwxTb6-53" style="rounded=0;orthogonalLoop=1;jettySize=auto;html=1;entryX=0;entryY=0.5;entryDx=0;entryDy=0;exitX=1;exitY=0.5;exitDx=0;exitDy=0;endArrow=openThin;endFill=0;endSize=6;fontSize=20;fontFamily=Palatino Linotype;" parent="unW8AJuNFac2D4NUh13W-2" source="My6zWbfyxGtQk9fwxTb6-42" target="My6zWbfyxGtQk9fwxTb6-43" edge="1">
          <mxGeometry relative="1" as="geometry">
            <mxPoint x="242.5" y="690" as="sourcePoint" />
            <mxPoint x="285.5" y="610" as="targetPoint" />
          </mxGeometry>
        </mxCell>
        <mxCell id="My6zWbfyxGtQk9fwxTb6-19" value="" style="ellipse;whiteSpace=wrap;html=1;aspect=fixed;fontSize=20;fillColor=#f5f5f5;fontColor=#333333;strokeColor=#666666;fontFamily=Palatino Linotype;" parent="unW8AJuNFac2D4NUh13W-2" vertex="1">
          <mxGeometry x="432.5" y="330" width="60" height="60" as="geometry" />
        </mxCell>
        <mxCell id="My6zWbfyxGtQk9fwxTb6-20" value="" style="ellipse;whiteSpace=wrap;html=1;aspect=fixed;fontSize=20;fillColor=#f5f5f5;fontColor=#333333;strokeColor=#666666;fontFamily=Palatino Linotype;" parent="unW8AJuNFac2D4NUh13W-2" vertex="1">
          <mxGeometry x="432.5" y="410" width="60" height="60" as="geometry" />
        </mxCell>
        <mxCell id="My6zWbfyxGtQk9fwxTb6-21" value="" style="ellipse;whiteSpace=wrap;html=1;aspect=fixed;fontSize=20;fillColor=#f5f5f5;fontColor=#333333;strokeColor=#666666;fontFamily=Palatino Linotype;" parent="unW8AJuNFac2D4NUh13W-2" vertex="1">
          <mxGeometry x="432.5" y="570" width="60" height="60" as="geometry" />
        </mxCell>
        <mxCell id="My6zWbfyxGtQk9fwxTb6-22" value="$$\vdots$$" style="text;html=1;strokeColor=none;fillColor=none;align=center;verticalAlign=middle;whiteSpace=wrap;rounded=0;fontSize=20;fontStyle=0;fontFamily=Palatino Linotype;" parent="unW8AJuNFac2D4NUh13W-2" vertex="1">
          <mxGeometry x="432.5" y="505" width="60" height="30" as="geometry" />
        </mxCell>
        <mxCell id="My6zWbfyxGtQk9fwxTb6-4" value="$$\boldsymbol{x}$$" style="ellipse;whiteSpace=wrap;html=1;aspect=fixed;fontSize=20;fillColor=#ffe6cc;strokeColor=#d79b00;fontFamily=Palatino Linotype;" parent="unW8AJuNFac2D4NUh13W-2" vertex="1">
          <mxGeometry x="22.5" y="450" width="60" height="60" as="geometry" />
        </mxCell>
        <mxCell id="My6zWbfyxGtQk9fwxTb6-25" style="rounded=0;orthogonalLoop=1;jettySize=auto;html=1;entryX=0;entryY=0.5;entryDx=0;entryDy=0;exitX=1;exitY=0.5;exitDx=0;exitDy=0;endArrow=openThin;endFill=0;fillColor=#d5e8d4;strokeColor=#000000;endSize=3;fontSize=20;fontFamily=Palatino Linotype;" parent="unW8AJuNFac2D4NUh13W-2" source="My6zWbfyxGtQk9fwxTb6-4" target="My6zWbfyxGtQk9fwxTb6-6" edge="1">
          <mxGeometry relative="1" as="geometry" />
        </mxCell>
        <mxCell id="My6zWbfyxGtQk9fwxTb6-27" style="rounded=0;orthogonalLoop=1;jettySize=auto;html=1;entryX=0;entryY=0.5;entryDx=0;entryDy=0;exitX=1;exitY=0.5;exitDx=0;exitDy=0;endArrow=openThin;endFill=0;fillColor=#d5e8d4;strokeColor=#000000;endSize=3;fontSize=20;fontFamily=Palatino Linotype;" parent="unW8AJuNFac2D4NUh13W-2" source="My6zWbfyxGtQk9fwxTb6-4" target="My6zWbfyxGtQk9fwxTb6-7" edge="1">
          <mxGeometry relative="1" as="geometry">
            <mxPoint x="82.5" y="440" as="sourcePoint" />
            <mxPoint x="132.5" y="370" as="targetPoint" />
          </mxGeometry>
        </mxCell>
        <mxCell id="My6zWbfyxGtQk9fwxTb6-28" style="rounded=0;orthogonalLoop=1;jettySize=auto;html=1;entryX=0;entryY=0.5;entryDx=0;entryDy=0;exitX=1;exitY=0.5;exitDx=0;exitDy=0;endArrow=openThin;endFill=0;fillColor=#d5e8d4;strokeColor=#000000;endSize=3;fontSize=20;fontFamily=Palatino Linotype;" parent="unW8AJuNFac2D4NUh13W-2" source="My6zWbfyxGtQk9fwxTb6-4" target="My6zWbfyxGtQk9fwxTb6-8" edge="1">
          <mxGeometry relative="1" as="geometry">
            <mxPoint x="72.5" y="430" as="sourcePoint" />
            <mxPoint x="132.5" y="450" as="targetPoint" />
          </mxGeometry>
        </mxCell>
        <mxCell id="My6zWbfyxGtQk9fwxTb6-5" value="$$t$$" style="ellipse;whiteSpace=wrap;html=1;aspect=fixed;fontSize=20;fillColor=#ffe6cc;strokeColor=#d79b00;fontFamily=Palatino Linotype;" parent="unW8AJuNFac2D4NUh13W-2" vertex="1">
          <mxGeometry x="22.5" y="540" width="60" height="60" as="geometry" />
        </mxCell>
        <mxCell id="My6zWbfyxGtQk9fwxTb6-29" style="rounded=0;orthogonalLoop=1;jettySize=auto;html=1;entryX=0;entryY=0.5;entryDx=0;entryDy=0;exitX=1;exitY=0.5;exitDx=0;exitDy=0;endArrow=openThin;endFill=0;fillColor=#d5e8d4;strokeColor=#000000;endSize=3;fontSize=20;fontFamily=Palatino Linotype;" parent="unW8AJuNFac2D4NUh13W-2" source="My6zWbfyxGtQk9fwxTb6-5" target="My6zWbfyxGtQk9fwxTb6-6" edge="1">
          <mxGeometry relative="1" as="geometry">
            <mxPoint x="82.5" y="440" as="sourcePoint" />
            <mxPoint x="132.5" y="610" as="targetPoint" />
          </mxGeometry>
        </mxCell>
        <mxCell id="My6zWbfyxGtQk9fwxTb6-30" style="rounded=0;orthogonalLoop=1;jettySize=auto;html=1;entryX=0;entryY=0.5;entryDx=0;entryDy=0;exitX=1;exitY=0.5;exitDx=0;exitDy=0;endArrow=openThin;endFill=0;fillColor=#d5e8d4;strokeColor=#000000;endSize=3;fontSize=20;fontFamily=Palatino Linotype;" parent="unW8AJuNFac2D4NUh13W-2" source="My6zWbfyxGtQk9fwxTb6-5" target="My6zWbfyxGtQk9fwxTb6-7" edge="1">
          <mxGeometry relative="1" as="geometry">
            <mxPoint x="82.5" y="530" as="sourcePoint" />
            <mxPoint x="132.5" y="370" as="targetPoint" />
          </mxGeometry>
        </mxCell>
        <mxCell id="My6zWbfyxGtQk9fwxTb6-31" style="rounded=0;orthogonalLoop=1;jettySize=auto;html=1;entryX=0;entryY=0.5;entryDx=0;entryDy=0;exitX=1;exitY=0.5;exitDx=0;exitDy=0;endArrow=openThin;endFill=0;fillColor=#d5e8d4;strokeColor=#000000;endSize=3;fontSize=20;fontFamily=Palatino Linotype;" parent="unW8AJuNFac2D4NUh13W-2" source="My6zWbfyxGtQk9fwxTb6-5" target="My6zWbfyxGtQk9fwxTb6-8" edge="1">
          <mxGeometry relative="1" as="geometry">
            <mxPoint x="82.5" y="530" as="sourcePoint" />
            <mxPoint x="132.5" y="450" as="targetPoint" />
          </mxGeometry>
        </mxCell>
        <mxCell id="My6zWbfyxGtQk9fwxTb6-11" value="" style="ellipse;whiteSpace=wrap;html=1;aspect=fixed;fontSize=20;fillColor=#f5f5f5;fontColor=#333333;strokeColor=#666666;fontFamily=Palatino Linotype;" parent="unW8AJuNFac2D4NUh13W-2" vertex="1">
          <mxGeometry x="312.5" y="330" width="60" height="60" as="geometry" />
        </mxCell>
        <mxCell id="My6zWbfyxGtQk9fwxTb6-32" style="rounded=0;orthogonalLoop=1;jettySize=auto;html=1;entryX=0;entryY=0.5;entryDx=0;entryDy=0;exitX=1;exitY=0.5;exitDx=0;exitDy=0;endArrow=openThin;endFill=0;endSize=6;fontSize=20;fontFamily=Palatino Linotype;" parent="unW8AJuNFac2D4NUh13W-2" source="My6zWbfyxGtQk9fwxTb6-6" target="My6zWbfyxGtQk9fwxTb6-11" edge="1">
          <mxGeometry relative="1" as="geometry">
            <mxPoint x="132.5" y="530" as="sourcePoint" />
            <mxPoint x="182.5" y="610" as="targetPoint" />
          </mxGeometry>
        </mxCell>
        <mxCell id="My6zWbfyxGtQk9fwxTb6-35" style="rounded=0;orthogonalLoop=1;jettySize=auto;html=1;entryX=0;entryY=0.5;entryDx=0;entryDy=0;exitX=1;exitY=0.5;exitDx=0;exitDy=0;endArrow=openThin;endFill=0;endSize=6;fontSize=20;fontFamily=Palatino Linotype;" parent="unW8AJuNFac2D4NUh13W-2" source="My6zWbfyxGtQk9fwxTb6-7" target="My6zWbfyxGtQk9fwxTb6-11" edge="1">
          <mxGeometry relative="1" as="geometry">
            <mxPoint x="242.5" y="370" as="sourcePoint" />
            <mxPoint x="285.5" y="610" as="targetPoint" />
          </mxGeometry>
        </mxCell>
        <mxCell id="My6zWbfyxGtQk9fwxTb6-39" style="rounded=0;orthogonalLoop=1;jettySize=auto;html=1;entryX=0;entryY=0.5;entryDx=0;entryDy=0;exitX=1;exitY=0.5;exitDx=0;exitDy=0;endArrow=openThin;endFill=0;endSize=6;fontSize=20;fontFamily=Palatino Linotype;" parent="unW8AJuNFac2D4NUh13W-2" source="My6zWbfyxGtQk9fwxTb6-8" target="My6zWbfyxGtQk9fwxTb6-11" edge="1">
          <mxGeometry relative="1" as="geometry">
            <mxPoint x="242.5" y="610" as="sourcePoint" />
            <mxPoint x="285.5" y="610" as="targetPoint" />
          </mxGeometry>
        </mxCell>
        <mxCell id="My6zWbfyxGtQk9fwxTb6-12" value="" style="ellipse;whiteSpace=wrap;html=1;aspect=fixed;fontSize=20;fillColor=#f5f5f5;fontColor=#333333;strokeColor=#666666;fontFamily=Palatino Linotype;" parent="unW8AJuNFac2D4NUh13W-2" vertex="1">
          <mxGeometry x="312.5" y="410" width="60" height="60" as="geometry" />
        </mxCell>
        <mxCell id="My6zWbfyxGtQk9fwxTb6-33" style="rounded=0;orthogonalLoop=1;jettySize=auto;html=1;entryX=0;entryY=0.5;entryDx=0;entryDy=0;exitX=1;exitY=0.5;exitDx=0;exitDy=0;endArrow=openThin;endFill=0;endSize=6;fontSize=20;fontFamily=Palatino Linotype;" parent="unW8AJuNFac2D4NUh13W-2" source="My6zWbfyxGtQk9fwxTb6-6" target="My6zWbfyxGtQk9fwxTb6-12" edge="1">
          <mxGeometry relative="1" as="geometry">
            <mxPoint x="242.5" y="370" as="sourcePoint" />
            <mxPoint x="285.5" y="370" as="targetPoint" />
          </mxGeometry>
        </mxCell>
        <mxCell id="My6zWbfyxGtQk9fwxTb6-36" style="rounded=0;orthogonalLoop=1;jettySize=auto;html=1;entryX=0;entryY=0.5;entryDx=0;entryDy=0;exitX=1;exitY=0.5;exitDx=0;exitDy=0;endArrow=openThin;endFill=0;endSize=6;fontSize=20;fontFamily=Palatino Linotype;" parent="unW8AJuNFac2D4NUh13W-2" source="My6zWbfyxGtQk9fwxTb6-7" target="My6zWbfyxGtQk9fwxTb6-12" edge="1">
          <mxGeometry relative="1" as="geometry">
            <mxPoint x="242.5" y="450" as="sourcePoint" />
            <mxPoint x="285.5" y="370" as="targetPoint" />
          </mxGeometry>
        </mxCell>
        <mxCell id="My6zWbfyxGtQk9fwxTb6-13" value="" style="ellipse;whiteSpace=wrap;html=1;aspect=fixed;fontSize=20;fillColor=#f5f5f5;fontColor=#333333;strokeColor=#666666;fontFamily=Palatino Linotype;" parent="unW8AJuNFac2D4NUh13W-2" vertex="1">
          <mxGeometry x="312.5" y="570" width="60" height="60" as="geometry" />
        </mxCell>
        <mxCell id="My6zWbfyxGtQk9fwxTb6-14" value="$$\vdots$$" style="text;html=1;strokeColor=none;fillColor=none;align=center;verticalAlign=middle;whiteSpace=wrap;rounded=0;fontSize=20;fontStyle=0;fontFamily=Palatino Linotype;" parent="unW8AJuNFac2D4NUh13W-2" vertex="1">
          <mxGeometry x="312.5" y="505" width="60" height="30" as="geometry" />
        </mxCell>
        <mxCell id="My6zWbfyxGtQk9fwxTb6-113" value="$$\cdots$$" style="text;html=1;strokeColor=none;fillColor=none;align=center;verticalAlign=middle;whiteSpace=wrap;rounded=0;fontSize=20;fontStyle=0;fontFamily=Palatino Linotype;" parent="unW8AJuNFac2D4NUh13W-2" vertex="1">
          <mxGeometry x="372.5" y="425" width="60" height="30" as="geometry" />
        </mxCell>
        <mxCell id="My6zWbfyxGtQk9fwxTb6-114" value="$$\cdots$$" style="text;html=1;strokeColor=none;fillColor=none;align=center;verticalAlign=middle;whiteSpace=wrap;rounded=0;fontSize=20;fontStyle=0;fontFamily=Palatino Linotype;" parent="unW8AJuNFac2D4NUh13W-2" vertex="1">
          <mxGeometry x="372.5" y="345" width="60" height="30" as="geometry" />
        </mxCell>
        <mxCell id="My6zWbfyxGtQk9fwxTb6-115" value="$$\cdots$$" style="text;html=1;strokeColor=none;fillColor=none;align=center;verticalAlign=middle;whiteSpace=wrap;rounded=0;fontSize=20;fontStyle=0;fontFamily=Palatino Linotype;" parent="unW8AJuNFac2D4NUh13W-2" vertex="1">
          <mxGeometry x="372.5" y="580" width="60" height="30" as="geometry" />
        </mxCell>
        <mxCell id="My6zWbfyxGtQk9fwxTb6-116" value="$$\cdots$$" style="text;html=1;strokeColor=none;fillColor=none;align=center;verticalAlign=middle;whiteSpace=wrap;rounded=0;fontSize=20;fontStyle=0;fontFamily=Palatino Linotype;" parent="unW8AJuNFac2D4NUh13W-2" vertex="1">
          <mxGeometry x="372.5" y="665" width="60" height="30" as="geometry" />
        </mxCell>
        <mxCell id="BszT2_qG-WdLsj_Sx0hV-7" value="" style="group;fontSize=20;fontFamily=Palatino Linotype;" parent="unW8AJuNFac2D4NUh13W-2" vertex="1" connectable="0">
          <mxGeometry x="582.5" y="435" width="80" height="170" as="geometry" />
        </mxCell>
        <mxCell id="BszT2_qG-WdLsj_Sx0hV-2" value="" style="rounded=1;whiteSpace=wrap;html=1;fillColor=#d5e8d4;strokeColor=#82b366;fontSize=20;fontFamily=Palatino Linotype;" parent="BszT2_qG-WdLsj_Sx0hV-7" vertex="1">
          <mxGeometry width="80" height="170" as="geometry" />
        </mxCell>
        <mxCell id="BszT2_qG-WdLsj_Sx0hV-3" value="$$\phi$$" style="ellipse;whiteSpace=wrap;html=1;aspect=fixed;fontSize=20;fillColor=#d5e8d4;strokeColor=#82b366;fontFamily=Palatino Linotype;" parent="BszT2_qG-WdLsj_Sx0hV-7" vertex="1">
          <mxGeometry x="10" y="20" width="60" height="60" as="geometry" />
        </mxCell>
        <mxCell id="BszT2_qG-WdLsj_Sx0hV-4" value="$$c$$" style="ellipse;whiteSpace=wrap;html=1;aspect=fixed;fontSize=20;fillColor=#d5e8d4;strokeColor=#82b366;fontFamily=Palatino Linotype;" parent="BszT2_qG-WdLsj_Sx0hV-7" vertex="1">
          <mxGeometry x="10" y="95" width="60" height="60" as="geometry" />
        </mxCell>
        <mxCell id="BszT2_qG-WdLsj_Sx0hV-33" value="Input&lt;br style=&quot;font-size: 24px;&quot;&gt;Layer" style="text;html=1;strokeColor=none;fillColor=none;align=center;verticalAlign=middle;whiteSpace=wrap;rounded=0;fontFamily=Palatino Linotype;fontSize=24;" parent="unW8AJuNFac2D4NUh13W-2" vertex="1">
          <mxGeometry y="625" width="100" height="70" as="geometry" />
        </mxCell>
        <mxCell id="BszT2_qG-WdLsj_Sx0hV-34" value="Hidden Layer" style="text;html=1;strokeColor=none;fillColor=none;align=center;verticalAlign=middle;whiteSpace=wrap;rounded=0;fontFamily=Palatino Linotype;fontSize=24;" parent="unW8AJuNFac2D4NUh13W-2" vertex="1">
          <mxGeometry x="237.5" y="740" width="170" height="30" as="geometry" />
        </mxCell>
        <mxCell id="BszT2_qG-WdLsj_Sx0hV-36" value="Output Layer" style="text;html=1;strokeColor=none;fillColor=none;align=center;verticalAlign=middle;whiteSpace=wrap;rounded=0;fontFamily=Palatino Linotype;fontSize=24;" parent="unW8AJuNFac2D4NUh13W-2" vertex="1">
          <mxGeometry x="617.5" y="740" width="170" height="30" as="geometry" />
        </mxCell>
        <mxCell id="BszT2_qG-WdLsj_Sx0hV-37" value="$$\hat{u}$$" style="text;html=1;strokeColor=none;fillColor=none;align=center;verticalAlign=middle;whiteSpace=wrap;rounded=0;fontFamily=Palatino Linotype;fontSize=20;" parent="unW8AJuNFac2D4NUh13W-2" vertex="1">
          <mxGeometry x="590" y="400" width="65" height="30" as="geometry" />
        </mxCell>
        <mxCell id="BszT2_qG-WdLsj_Sx0hV-46" value="Automatic Differentiation" style="text;html=1;strokeColor=none;fillColor=none;align=left;verticalAlign=middle;whiteSpace=wrap;rounded=0;fontFamily=Palatino Linotype;fontSize=24;rotation=-90;" parent="unW8AJuNFac2D4NUh13W-2" vertex="1">
          <mxGeometry x="605.63" y="391.88" width="173.75" height="50" as="geometry" />
        </mxCell>
        <mxCell id="BszT2_qG-WdLsj_Sx0hV-47" value="" style="group;fontSize=20;fontFamily=Palatino Linotype;" parent="unW8AJuNFac2D4NUh13W-2" vertex="1" connectable="0">
          <mxGeometry x="722.5" y="320" width="100" height="400" as="geometry" />
        </mxCell>
        <mxCell id="BszT2_qG-WdLsj_Sx0hV-43" value="" style="rounded=1;whiteSpace=wrap;html=1;fillColor=#d5e8d4;strokeColor=#82b366;fontSize=20;fontFamily=Palatino Linotype;" parent="BszT2_qG-WdLsj_Sx0hV-47" vertex="1">
          <mxGeometry width="100" height="400" as="geometry" />
        </mxCell>
        <mxCell id="My6zWbfyxGtQk9fwxTb6-92" value="$$I$$" style="ellipse;whiteSpace=wrap;html=1;aspect=fixed;fontSize=20;fillColor=#d5e8d4;strokeColor=#82b366;fontFamily=Palatino Linotype;" parent="BszT2_qG-WdLsj_Sx0hV-47" vertex="1">
          <mxGeometry x="20" y="10" width="60" height="60" as="geometry" />
        </mxCell>
        <mxCell id="My6zWbfyxGtQk9fwxTb6-93" value="$$\nabla$$" style="ellipse;whiteSpace=wrap;html=1;aspect=fixed;fontSize=20;fillColor=#d5e8d4;strokeColor=#82b366;fontFamily=Palatino Linotype;" parent="BszT2_qG-WdLsj_Sx0hV-47" vertex="1">
          <mxGeometry x="20" y="170" width="60" height="60" as="geometry" />
        </mxCell>
        <mxCell id="My6zWbfyxGtQk9fwxTb6-94" value="$$\nabla^2$$" style="ellipse;whiteSpace=wrap;html=1;aspect=fixed;fontSize=20;fillColor=#d5e8d4;strokeColor=#82b366;fontFamily=Palatino Linotype;" parent="BszT2_qG-WdLsj_Sx0hV-47" vertex="1">
          <mxGeometry x="20" y="250" width="60" height="60" as="geometry" />
        </mxCell>
        <mxCell id="My6zWbfyxGtQk9fwxTb6-95" value="$$\frac{\mathrm{d}}{\mathrm{d}t}$$" style="ellipse;whiteSpace=wrap;html=1;aspect=fixed;fontSize=20;fillColor=#d5e8d4;strokeColor=#82b366;fontFamily=Palatino Linotype;" parent="BszT2_qG-WdLsj_Sx0hV-47" vertex="1">
          <mxGeometry x="20" y="90" width="60" height="60" as="geometry" />
        </mxCell>
        <mxCell id="My6zWbfyxGtQk9fwxTb6-100" value="$$\cdots$$" style="ellipse;whiteSpace=wrap;html=1;aspect=fixed;fontSize=20;fillColor=#d5e8d4;strokeColor=#82b366;fontFamily=Palatino Linotype;" parent="BszT2_qG-WdLsj_Sx0hV-47" vertex="1">
          <mxGeometry x="20" y="330" width="60" height="60" as="geometry" />
        </mxCell>
        <mxCell id="BszT2_qG-WdLsj_Sx0hV-52" style="edgeStyle=orthogonalEdgeStyle;rounded=0;orthogonalLoop=1;jettySize=auto;html=1;entryX=0;entryY=0.5;entryDx=0;entryDy=0;strokeWidth=2;fontSize=20;fontFamily=Palatino Linotype;" parent="unW8AJuNFac2D4NUh13W-2" source="BszT2_qG-WdLsj_Sx0hV-2" target="BszT2_qG-WdLsj_Sx0hV-43" edge="1">
          <mxGeometry relative="1" as="geometry" />
        </mxCell>
        <mxCell id="My6zWbfyxGtQk9fwxTb6-57" style="rounded=0;orthogonalLoop=1;jettySize=auto;html=1;entryX=0;entryY=0.5;entryDx=0;entryDy=0;exitX=1;exitY=0.5;exitDx=0;exitDy=0;endArrow=openThin;endFill=0;endSize=6;fontSize=20;fontFamily=Palatino Linotype;" parent="unW8AJuNFac2D4NUh13W-2" source="My6zWbfyxGtQk9fwxTb6-19" target="BszT2_qG-WdLsj_Sx0hV-3" edge="1">
          <mxGeometry relative="1" as="geometry">
            <mxPoint x="242.5" y="370" as="sourcePoint" />
            <mxPoint x="572.5" y="470" as="targetPoint" />
          </mxGeometry>
        </mxCell>
        <mxCell id="My6zWbfyxGtQk9fwxTb6-58" style="rounded=0;orthogonalLoop=1;jettySize=auto;html=1;entryX=0;entryY=0.5;entryDx=0;entryDy=0;exitX=1;exitY=0.5;exitDx=0;exitDy=0;endArrow=openThin;endFill=0;endSize=6;fontSize=20;fontFamily=Palatino Linotype;" parent="unW8AJuNFac2D4NUh13W-2" source="My6zWbfyxGtQk9fwxTb6-20" target="BszT2_qG-WdLsj_Sx0hV-3" edge="1">
          <mxGeometry relative="1" as="geometry">
            <mxPoint x="542.5" y="370" as="sourcePoint" />
            <mxPoint x="572.5" y="470" as="targetPoint" />
          </mxGeometry>
        </mxCell>
        <mxCell id="My6zWbfyxGtQk9fwxTb6-59" style="rounded=0;orthogonalLoop=1;jettySize=auto;html=1;exitX=1;exitY=0.5;exitDx=0;exitDy=0;endArrow=openThin;endFill=0;endSize=6;fontSize=20;entryX=0;entryY=0.5;entryDx=0;entryDy=0;fontFamily=Palatino Linotype;" parent="unW8AJuNFac2D4NUh13W-2" source="My6zWbfyxGtQk9fwxTb6-21" target="BszT2_qG-WdLsj_Sx0hV-3" edge="1">
          <mxGeometry relative="1" as="geometry">
            <mxPoint x="542.5" y="450" as="sourcePoint" />
            <mxPoint x="602.5" y="860" as="targetPoint" />
          </mxGeometry>
        </mxCell>
        <mxCell id="My6zWbfyxGtQk9fwxTb6-60" style="rounded=0;orthogonalLoop=1;jettySize=auto;html=1;exitX=1;exitY=0.5;exitDx=0;exitDy=0;endArrow=openThin;endFill=0;endSize=6;fontSize=20;entryX=0;entryY=0.5;entryDx=0;entryDy=0;fontFamily=Palatino Linotype;" parent="unW8AJuNFac2D4NUh13W-2" source="My6zWbfyxGtQk9fwxTb6-44" target="BszT2_qG-WdLsj_Sx0hV-3" edge="1">
          <mxGeometry relative="1" as="geometry">
            <mxPoint x="542.5" y="610" as="sourcePoint" />
            <mxPoint x="632.5" y="820" as="targetPoint" />
          </mxGeometry>
        </mxCell>
        <mxCell id="BszT2_qG-WdLsj_Sx0hV-54" style="rounded=0;orthogonalLoop=1;jettySize=auto;html=1;entryX=0;entryY=0.5;entryDx=0;entryDy=0;exitX=1;exitY=0.5;exitDx=0;exitDy=0;endArrow=openThin;endFill=0;endSize=6;fontSize=20;fontFamily=Palatino Linotype;" parent="unW8AJuNFac2D4NUh13W-2" source="My6zWbfyxGtQk9fwxTb6-19" target="BszT2_qG-WdLsj_Sx0hV-4" edge="1">
          <mxGeometry relative="1" as="geometry">
            <mxPoint x="502.5" y="450" as="sourcePoint" />
            <mxPoint x="602.5" y="495" as="targetPoint" />
          </mxGeometry>
        </mxCell>
        <mxCell id="BszT2_qG-WdLsj_Sx0hV-55" style="rounded=0;orthogonalLoop=1;jettySize=auto;html=1;entryX=0;entryY=0.5;entryDx=0;entryDy=0;exitX=1;exitY=0.5;exitDx=0;exitDy=0;endArrow=openThin;endFill=0;endSize=6;fontSize=20;fontFamily=Palatino Linotype;" parent="unW8AJuNFac2D4NUh13W-2" source="My6zWbfyxGtQk9fwxTb6-20" target="BszT2_qG-WdLsj_Sx0hV-4" edge="1">
          <mxGeometry relative="1" as="geometry">
            <mxPoint x="502.5" y="370" as="sourcePoint" />
            <mxPoint x="602.5" y="570" as="targetPoint" />
          </mxGeometry>
        </mxCell>
        <mxCell id="BszT2_qG-WdLsj_Sx0hV-56" style="rounded=0;orthogonalLoop=1;jettySize=auto;html=1;entryX=0;entryY=0.5;entryDx=0;entryDy=0;exitX=1;exitY=0.5;exitDx=0;exitDy=0;endArrow=openThin;endFill=0;endSize=6;fontSize=20;fontFamily=Palatino Linotype;" parent="unW8AJuNFac2D4NUh13W-2" source="My6zWbfyxGtQk9fwxTb6-21" target="BszT2_qG-WdLsj_Sx0hV-4" edge="1">
          <mxGeometry relative="1" as="geometry">
            <mxPoint x="502.5" y="450" as="sourcePoint" />
            <mxPoint x="602.5" y="570" as="targetPoint" />
          </mxGeometry>
        </mxCell>
        <mxCell id="BszT2_qG-WdLsj_Sx0hV-57" style="rounded=0;orthogonalLoop=1;jettySize=auto;html=1;entryX=0;entryY=0.5;entryDx=0;entryDy=0;exitX=1;exitY=0.5;exitDx=0;exitDy=0;endArrow=openThin;endFill=0;endSize=6;fontSize=20;fontFamily=Palatino Linotype;" parent="unW8AJuNFac2D4NUh13W-2" source="My6zWbfyxGtQk9fwxTb6-44" target="BszT2_qG-WdLsj_Sx0hV-4" edge="1">
          <mxGeometry relative="1" as="geometry">
            <mxPoint x="502.5" y="610" as="sourcePoint" />
            <mxPoint x="602.5" y="570" as="targetPoint" />
          </mxGeometry>
        </mxCell>
        <mxCell id="My6zWbfyxGtQk9fwxTb6-40" style="rounded=0;orthogonalLoop=1;jettySize=auto;html=1;entryX=0;entryY=0.5;entryDx=0;entryDy=0;exitX=1;exitY=0.5;exitDx=0;exitDy=0;endArrow=openThin;endFill=0;endSize=6;fontSize=20;fontFamily=Palatino Linotype;" parent="unW8AJuNFac2D4NUh13W-2" source="My6zWbfyxGtQk9fwxTb6-8" target="My6zWbfyxGtQk9fwxTb6-12" edge="1">
          <mxGeometry relative="1" as="geometry">
            <mxPoint x="242.5" y="610" as="sourcePoint" />
            <mxPoint x="285.5" y="370" as="targetPoint" />
          </mxGeometry>
        </mxCell>
        <mxCell id="My6zWbfyxGtQk9fwxTb6-34" style="rounded=0;orthogonalLoop=1;jettySize=auto;html=1;entryX=0;entryY=0.5;entryDx=0;entryDy=0;exitX=1;exitY=0.5;exitDx=0;exitDy=0;endArrow=openThin;endFill=0;endSize=6;fontSize=20;fontFamily=Palatino Linotype;" parent="unW8AJuNFac2D4NUh13W-2" source="My6zWbfyxGtQk9fwxTb6-6" target="My6zWbfyxGtQk9fwxTb6-13" edge="1">
          <mxGeometry relative="1" as="geometry">
            <mxPoint x="742.5" y="357.86" as="sourcePoint" />
            <mxPoint x="785.5" y="630" as="targetPoint" />
          </mxGeometry>
        </mxCell>
        <mxCell id="My6zWbfyxGtQk9fwxTb6-37" style="rounded=0;orthogonalLoop=1;jettySize=auto;html=1;entryX=0;entryY=0.5;entryDx=0;entryDy=0;exitX=1;exitY=0.5;exitDx=0;exitDy=0;endArrow=openThin;endFill=0;endSize=6;fontSize=20;fontFamily=Palatino Linotype;" parent="unW8AJuNFac2D4NUh13W-2" source="My6zWbfyxGtQk9fwxTb6-7" target="My6zWbfyxGtQk9fwxTb6-13" edge="1">
          <mxGeometry relative="1" as="geometry">
            <mxPoint x="242.5" y="450" as="sourcePoint" />
            <mxPoint x="285.5" y="450" as="targetPoint" />
          </mxGeometry>
        </mxCell>
        <mxCell id="My6zWbfyxGtQk9fwxTb6-38" style="rounded=0;orthogonalLoop=1;jettySize=auto;html=1;entryX=0;entryY=0.5;entryDx=0;entryDy=0;exitX=1;exitY=0.5;exitDx=0;exitDy=0;endArrow=openThin;endFill=0;endSize=6;fontSize=20;fontFamily=Palatino Linotype;" parent="unW8AJuNFac2D4NUh13W-2" source="My6zWbfyxGtQk9fwxTb6-8" target="My6zWbfyxGtQk9fwxTb6-13" edge="1">
          <mxGeometry relative="1" as="geometry">
            <mxPoint x="242.5" y="450" as="sourcePoint" />
            <mxPoint x="285.5" y="610" as="targetPoint" />
          </mxGeometry>
        </mxCell>
        <mxCell id="s7pyCabgil_awyXMFI7J-299" style="edgeStyle=orthogonalEdgeStyle;rounded=0;orthogonalLoop=1;jettySize=auto;html=1;entryX=0.5;entryY=1;entryDx=0;entryDy=0;fontSize=20;fontFamily=Palatino Linotype;strokeWidth=2;exitX=0.5;exitY=1;exitDx=0;exitDy=0;" parent="unW8AJuNFac2D4NUh13W-2" source="BszT2_qG-WdLsj_Sx0hV-53" target="BszT2_qG-WdLsj_Sx0hV-34" edge="1">
          <mxGeometry relative="1" as="geometry">
            <Array as="points">
              <mxPoint x="1007.5" y="800" />
              <mxPoint x="322.5" y="800" />
            </Array>
          </mxGeometry>
        </mxCell>
        <mxCell id="s7pyCabgil_awyXMFI7J-302" value="Backward Propagation" style="edgeLabel;html=1;align=center;verticalAlign=middle;resizable=0;points=[];fontSize=24;fontFamily=Palatino Linotype;" parent="s7pyCabgil_awyXMFI7J-299" vertex="1" connectable="0">
          <mxGeometry x="0.0658" y="-1" relative="1" as="geometry">
            <mxPoint as="offset" />
          </mxGeometry>
        </mxCell>
        <mxCell id="BszT2_qG-WdLsj_Sx0hV-53" value="Loss Function" style="text;html=1;strokeColor=none;fillColor=none;align=center;verticalAlign=middle;whiteSpace=wrap;rounded=0;fontFamily=Palatino Linotype;fontSize=24;" parent="unW8AJuNFac2D4NUh13W-2" vertex="1">
          <mxGeometry x="922.5" y="700" width="170" height="30" as="geometry" />
        </mxCell>
        <mxCell id="s7pyCabgil_awyXMFI7J-35" value="Sampling" style="text;html=1;strokeColor=none;fillColor=none;align=center;verticalAlign=middle;whiteSpace=wrap;rounded=0;fontFamily=Palatino Linotype;fontSize=24;" parent="unW8AJuNFac2D4NUh13W-2" vertex="1">
          <mxGeometry x="257.5" width="170" height="30" as="geometry" />
        </mxCell>
        <mxCell id="s7pyCabgil_awyXMFI7J-41" value="\(w_j\,(j=\text{AC}, \text{CH}, \text{BC}, \text{IC})\): &lt;br style=&quot;font-size: 20px;&quot;&gt;NTK-based &lt;br style=&quot;font-size: 20px;&quot;&gt;adaptive weighting strategy &lt;br style=&quot;font-size: 20px;&quot;&gt;with random-batch method" style="rounded=1;whiteSpace=wrap;html=1;fillColor=#fad9d5;strokeColor=#ae4132;arcSize=9;strokeWidth=2;dashed=1;dashPattern=8 8;fontSize=20;fontFamily=Palatino Linotype;" parent="unW8AJuNFac2D4NUh13W-2" vertex="1">
          <mxGeometry x="732.5" y="155" width="390" height="135" as="geometry" />
        </mxCell>
        <mxCell id="s7pyCabgil_awyXMFI7J-61" value="Weighting" style="text;html=1;strokeColor=none;fillColor=none;align=center;verticalAlign=middle;whiteSpace=wrap;rounded=0;fontFamily=Palatino Linotype;fontSize=24;" parent="unW8AJuNFac2D4NUh13W-2" vertex="1">
          <mxGeometry x="847.5" y="110" width="170" height="30" as="geometry" />
        </mxCell>
        <mxCell id="s7pyCabgil_awyXMFI7J-60" value="" style="rounded=1;whiteSpace=wrap;html=1;fillColor=#fad9d5;strokeColor=#ae4132;arcSize=9;strokeWidth=2;dashed=1;dashPattern=8 8;fontSize=20;fontFamily=Palatino Linotype;" parent="unW8AJuNFac2D4NUh13W-2" vertex="1">
          <mxGeometry x="892.5" y="350" width="230" height="340" as="geometry" />
        </mxCell>
        <mxCell id="s7pyCabgil_awyXMFI7J-42" value="$$\mathcal{L}_\text{CH}$$" style="rounded=1;whiteSpace=wrap;html=1;fontSize=20;fillColor=#f8cecc;strokeColor=#b85450;fontFamily=Palatino Linotype;" parent="unW8AJuNFac2D4NUh13W-2" vertex="1">
          <mxGeometry x="912.5" y="450" width="60" height="60" as="geometry" />
        </mxCell>
        <mxCell id="s7pyCabgil_awyXMFI7J-44" value="$$\mathcal{L}_\text{AC}$$" style="rounded=1;whiteSpace=wrap;html=1;fontSize=20;fillColor=#f8cecc;strokeColor=#b85450;fontFamily=Palatino Linotype;" parent="unW8AJuNFac2D4NUh13W-2" vertex="1">
          <mxGeometry x="912.5" y="370" width="60" height="60" as="geometry" />
        </mxCell>
        <mxCell id="s7pyCabgil_awyXMFI7J-45" value="$$\mathcal{L}_\text{BC}$$" style="rounded=1;whiteSpace=wrap;html=1;fontSize=20;fillColor=#f8cecc;strokeColor=#b85450;fontFamily=Palatino Linotype;" parent="unW8AJuNFac2D4NUh13W-2" vertex="1">
          <mxGeometry x="912.5" y="530" width="60" height="60" as="geometry" />
        </mxCell>
        <mxCell id="s7pyCabgil_awyXMFI7J-46" value="$$\mathcal{L}_\text{IC}$$" style="rounded=1;whiteSpace=wrap;html=1;fontSize=20;fillColor=#f8cecc;strokeColor=#b85450;fontFamily=Palatino Linotype;" parent="unW8AJuNFac2D4NUh13W-2" vertex="1">
          <mxGeometry x="912.5" y="610" width="60" height="60" as="geometry" />
        </mxCell>
        <mxCell id="s7pyCabgil_awyXMFI7J-47" value="$$\mathcal{L}$$" style="rounded=1;whiteSpace=wrap;html=1;fontSize=20;fillColor=#f8cecc;strokeColor=#b85450;fontFamily=Palatino Linotype;" parent="unW8AJuNFac2D4NUh13W-2" vertex="1">
          <mxGeometry x="1042.5" y="490" width="60" height="60" as="geometry" />
        </mxCell>
        <mxCell id="s7pyCabgil_awyXMFI7J-48" style="rounded=0;orthogonalLoop=1;jettySize=auto;html=1;entryX=0;entryY=0.5;entryDx=0;entryDy=0;exitX=1;exitY=0.5;exitDx=0;exitDy=0;endArrow=openThin;endFill=0;endSize=6;fontSize=20;fillColor=none;fontFamily=Palatino Linotype;" parent="unW8AJuNFac2D4NUh13W-2" source="s7pyCabgil_awyXMFI7J-44" target="s7pyCabgil_awyXMFI7J-47" edge="1">
          <mxGeometry relative="1" as="geometry">
            <mxPoint x="812.5" y="407.5" as="sourcePoint" />
            <mxPoint x="922.5" y="462.5" as="targetPoint" />
          </mxGeometry>
        </mxCell>
        <mxCell id="s7pyCabgil_awyXMFI7J-49" style="rounded=0;orthogonalLoop=1;jettySize=auto;html=1;exitX=1;exitY=0.5;exitDx=0;exitDy=0;endArrow=openThin;endFill=0;endSize=6;fontSize=20;entryX=0;entryY=0.5;entryDx=0;entryDy=0;fillColor=none;fontFamily=Palatino Linotype;" parent="unW8AJuNFac2D4NUh13W-2" source="s7pyCabgil_awyXMFI7J-45" target="s7pyCabgil_awyXMFI7J-47" edge="1">
          <mxGeometry relative="1" as="geometry">
            <mxPoint x="1142.5" y="712.5" as="sourcePoint" />
            <mxPoint x="1192.5" y="657.5" as="targetPoint" />
          </mxGeometry>
        </mxCell>
        <mxCell id="s7pyCabgil_awyXMFI7J-50" style="rounded=0;orthogonalLoop=1;jettySize=auto;html=1;endArrow=openThin;endFill=0;endSize=6;fontSize=20;exitX=1;exitY=0.5;exitDx=0;exitDy=0;entryX=0;entryY=0.5;entryDx=0;entryDy=0;fontFamily=Palatino Linotype;" parent="unW8AJuNFac2D4NUh13W-2" source="s7pyCabgil_awyXMFI7J-46" target="s7pyCabgil_awyXMFI7J-47" edge="1">
          <mxGeometry relative="1" as="geometry">
            <mxPoint x="1042.5" y="667.5" as="sourcePoint" />
            <mxPoint x="1182.5" y="667.5" as="targetPoint" />
          </mxGeometry>
        </mxCell>
        <mxCell id="s7pyCabgil_awyXMFI7J-51" value="$$w_\text{AC}$$" style="text;html=1;strokeColor=none;fillColor=none;align=center;verticalAlign=middle;whiteSpace=wrap;rounded=0;fontSize=20;fontFamily=Palatino Linotype;" parent="unW8AJuNFac2D4NUh13W-2" vertex="1">
          <mxGeometry x="1002.5" y="420" width="30" height="30" as="geometry" />
        </mxCell>
        <mxCell id="s7pyCabgil_awyXMFI7J-55" style="rounded=0;orthogonalLoop=1;jettySize=auto;html=1;exitX=1;exitY=0.5;exitDx=0;exitDy=0;endArrow=openThin;endFill=0;endSize=6;fontSize=20;fillColor=none;entryX=0;entryY=0.5;entryDx=0;entryDy=0;fontFamily=Palatino Linotype;" parent="unW8AJuNFac2D4NUh13W-2" source="s7pyCabgil_awyXMFI7J-42" target="s7pyCabgil_awyXMFI7J-47" edge="1">
          <mxGeometry relative="1" as="geometry">
            <mxPoint x="982.5" y="410" as="sourcePoint" />
            <mxPoint x="1032.5" y="510" as="targetPoint" />
          </mxGeometry>
        </mxCell>
        <mxCell id="s7pyCabgil_awyXMFI7J-56" value="$$w_\text{CH}$$" style="text;html=1;strokeColor=none;fillColor=none;align=center;verticalAlign=middle;whiteSpace=wrap;rounded=0;fontSize=20;fontFamily=Palatino Linotype;" parent="unW8AJuNFac2D4NUh13W-2" vertex="1">
          <mxGeometry x="982.5" y="460" width="30" height="30" as="geometry" />
        </mxCell>
        <mxCell id="s7pyCabgil_awyXMFI7J-57" value="$$w_\text{BC}$$" style="text;html=1;strokeColor=none;fillColor=none;align=center;verticalAlign=middle;whiteSpace=wrap;rounded=0;fontSize=20;fontFamily=Palatino Linotype;" parent="unW8AJuNFac2D4NUh13W-2" vertex="1">
          <mxGeometry x="982.5" y="510" width="30" height="30" as="geometry" />
        </mxCell>
        <mxCell id="s7pyCabgil_awyXMFI7J-58" value="$$w_\text{IC}$$" style="text;html=1;strokeColor=none;fillColor=none;align=center;verticalAlign=middle;whiteSpace=wrap;rounded=0;fontSize=20;fontFamily=Palatino Linotype;" parent="unW8AJuNFac2D4NUh13W-2" vertex="1">
          <mxGeometry x="1002.5" y="590" width="30" height="30" as="geometry" />
        </mxCell>
        <mxCell id="s7pyCabgil_awyXMFI7J-63" style="edgeStyle=orthogonalEdgeStyle;rounded=0;orthogonalLoop=1;jettySize=auto;html=1;entryX=0.5;entryY=0;entryDx=0;entryDy=0;strokeWidth=2;exitX=0.705;exitY=1.007;exitDx=0;exitDy=0;exitPerimeter=0;fontSize=20;fontFamily=Palatino Linotype;" parent="unW8AJuNFac2D4NUh13W-2" source="s7pyCabgil_awyXMFI7J-41" target="s7pyCabgil_awyXMFI7J-60" edge="1">
          <mxGeometry relative="1" as="geometry">
            <mxPoint x="1017.5" y="220" as="sourcePoint" />
            <mxPoint x="1026.79" y="283" as="targetPoint" />
            <Array as="points" />
          </mxGeometry>
        </mxCell>
        <mxCell id="s7pyCabgil_awyXMFI7J-64" style="edgeStyle=orthogonalEdgeStyle;rounded=0;orthogonalLoop=1;jettySize=auto;html=1;entryX=0.5;entryY=0;entryDx=0;entryDy=0;strokeWidth=2;exitX=0.075;exitY=1.005;exitDx=0;exitDy=0;exitPerimeter=0;fontSize=20;fontFamily=Palatino Linotype;" parent="unW8AJuNFac2D4NUh13W-2" source="s7pyCabgil_awyXMFI7J-14" target="BszT2_qG-WdLsj_Sx0hV-13" edge="1">
          <mxGeometry relative="1" as="geometry">
            <mxPoint x="49.82999999999997" y="360" as="sourcePoint" />
            <mxPoint x="49.82999999999997" y="411" as="targetPoint" />
            <Array as="points" />
          </mxGeometry>
        </mxCell>
        <mxCell id="s7pyCabgil_awyXMFI7J-307" value="Data&lt;br style=&quot;font-size: 24px;&quot;&gt;Normalisation" style="edgeLabel;html=1;align=center;verticalAlign=middle;resizable=0;points=[];fontSize=24;fontFamily=Palatino Linotype;" parent="s7pyCabgil_awyXMFI7J-64" vertex="1" connectable="0">
          <mxGeometry x="-0.0526" y="1" relative="1" as="geometry">
            <mxPoint as="offset" />
          </mxGeometry>
        </mxCell>
        <mxCell id="s7pyCabgil_awyXMFI7J-67" style="edgeStyle=orthogonalEdgeStyle;rounded=0;orthogonalLoop=1;jettySize=auto;html=1;entryX=0.115;entryY=0.995;entryDx=0;entryDy=0;strokeWidth=2;entryPerimeter=0;exitX=0.75;exitY=0;exitDx=0;exitDy=0;fontSize=20;fontFamily=Palatino Linotype;" parent="unW8AJuNFac2D4NUh13W-2" source="BszT2_qG-WdLsj_Sx0hV-11" target="s7pyCabgil_awyXMFI7J-41" edge="1">
          <mxGeometry relative="1" as="geometry">
            <mxPoint x="802.5" y="288.52" as="sourcePoint" />
            <mxPoint x="852.5" y="289.52" as="targetPoint" />
          </mxGeometry>
        </mxCell>
        <mxCell id="s7pyCabgil_awyXMFI7J-310" style="edgeStyle=orthogonalEdgeStyle;rounded=0;orthogonalLoop=1;jettySize=auto;html=1;entryX=0;entryY=0.5;entryDx=0;entryDy=0;strokeWidth=2;fontSize=20;fontFamily=Palatino Linotype;" parent="unW8AJuNFac2D4NUh13W-2" source="BszT2_qG-WdLsj_Sx0hV-11" target="s7pyCabgil_awyXMFI7J-60" edge="1">
          <mxGeometry relative="1" as="geometry" />
        </mxCell>
        <mxCell id="s7pyCabgil_awyXMFI7J-69" style="edgeStyle=orthogonalEdgeStyle;rounded=0;orthogonalLoop=1;jettySize=auto;html=1;entryX=1;entryY=0.5;entryDx=0;entryDy=0;strokeWidth=2;exitX=0.5;exitY=0;exitDx=0;exitDy=0;fontSize=20;fontFamily=Palatino Linotype;" parent="unW8AJuNFac2D4NUh13W-2" source="BszT2_qG-WdLsj_Sx0hV-11" target="s7pyCabgil_awyXMFI7J-12" edge="1">
          <mxGeometry relative="1" as="geometry">
            <mxPoint x="702.0699999999999" y="270" as="sourcePoint" />
            <mxPoint x="702.0699999999999" y="174" as="targetPoint" />
          </mxGeometry>
        </mxCell>
        <mxCell id="s7pyCabgil_awyXMFI7J-312" value="Data&lt;br style=&quot;font-size: 24px;&quot;&gt;De-normalisation" style="text;html=1;strokeColor=none;fillColor=none;align=right;verticalAlign=middle;whiteSpace=wrap;rounded=0;fontFamily=Palatino Linotype;fontSize=24;rotation=-90;" parent="unW8AJuNFac2D4NUh13W-2" vertex="1">
          <mxGeometry x="596.88" y="604.38" width="191.25" height="50" as="geometry" />
        </mxCell>
      </root>
    </mxGraphModel>
  </diagram>
</mxfile>
